<svg width="216" height="178" viewBox="0 0 216 178" fill="none" xmlns="http://www.w3.org/2000/svg">
<path d="M210.918 30.4194H109.342C106.953 27.2793 104.483 22.4768 102.094 17.8036C99.5277 12.7856 96.8722 7.59787 94.209 4.27792C91.185 0.509399 87.2564 0 83.8105 0C82.634 0 81.4218 0.0658923 80.1894 0.131784C78.962 0.197677 77.7143 0.268639 76.4615 0.268639H5.08235C2.27944 0.268639 0 2.54192 0 5.33727V31.684V172.931C0 175.727 2.27944 178 5.08235 178H210.918C213.672 178 216 175.679 216 172.931V35.488C216 32.7408 213.672 30.4194 210.918 30.4194ZM2.54118 5.3398C2.54118 3.9662 3.70504 2.80549 5.08235 2.80549H76.4615C77.7625 2.80549 79.056 2.73452 80.3291 2.6661C81.5133 2.60274 82.6772 2.53685 83.8105 2.53685C86.7939 2.53685 89.8814 2.9398 92.2269 5.8644C94.7274 8.98161 97.322 14.0528 99.8327 18.9592C101.916 23.0293 104.056 27.216 106.214 30.4219H2.54118V5.3398ZM213.459 172.934C213.459 174.308 212.295 175.468 210.918 175.468H5.08235C3.70504 175.468 2.54118 174.308 2.54118 172.934V32.9537H108.706H210.918C212.295 32.9537 213.459 34.1144 213.459 35.488V172.934Z" fill="#143AA2"/>
</svg>
