<svg width="296" height="46" viewBox="0 0 296 46" fill="none" xmlns="http://www.w3.org/2000/svg">
<g clip-path="url(#clip0_140_3737)">
<path d="M5 45.8403V44.5399H5.33019C5.79979 44.5399 6.16484 44.384 6.42532 44.0722C6.68581 43.7605 6.87291 43.2567 6.98665 42.5608C7.10405 41.865 7.18293 40.943 7.22328 39.7947L7.4214 34.1597H14.2894V45.8403H12.9246V35.4144H8.72015L8.54405 40.0684C8.50002 41.2928 8.39179 42.3346 8.21936 43.1939C8.04693 44.0532 7.74425 44.7091 7.31133 45.1616C6.87842 45.6141 6.24739 45.8403 5.41824 45.8403H5Z" fill="#143AA2"/>
<path d="M28.7727 40C28.7727 41.2319 28.5581 42.2966 28.1289 43.1939C27.6996 44.0913 27.1108 44.7833 26.3623 45.27C25.6139 45.7567 24.7591 46 23.7979 46C22.8366 46 21.9818 45.7567 21.2334 45.27C20.4849 44.7833 19.8961 44.0913 19.4669 43.1939C19.0376 42.2966 18.823 41.2319 18.823 40C18.823 38.7681 19.0376 37.7034 19.4669 36.8061C19.8961 35.9087 20.4849 35.2167 21.2334 34.73C21.9818 34.2433 22.8366 34 23.7979 34C24.7591 34 25.6139 34.2433 26.3623 34.73C27.1108 35.2167 27.6996 35.9087 28.1289 36.8061C28.5581 37.7034 28.7727 38.7681 28.7727 40ZM27.452 40C27.452 38.9886 27.2887 38.135 26.9622 37.4392C26.6393 36.7433 26.2009 36.2167 25.6469 35.8593C25.0966 35.5019 24.4803 35.3232 23.7979 35.3232C23.1155 35.3232 22.4973 35.5019 21.9433 35.8593C21.393 36.2167 20.9546 36.7433 20.628 37.4392C20.3052 38.135 20.1438 38.9886 20.1438 40C20.1438 41.0114 20.3052 41.865 20.628 42.5608C20.9546 43.2567 21.393 43.7833 21.9433 44.1407C22.4973 44.4981 23.1155 44.6768 23.7979 44.6768C24.4803 44.6768 25.0966 44.4981 25.6469 44.1407C26.2009 43.7833 26.6393 43.2567 26.9622 42.5608C27.2887 41.865 27.452 41.0114 27.452 40Z" fill="#143AA2"/>
<path d="M40.1165 34.1597V35.4144H34.6794V45.8403H33.3146V34.1597H40.1165Z" fill="#143AA2"/>
<path d="M44.4754 34.1597H45.8182V43.3536H45.9283L52.0918 34.1597H53.4126V45.8403H52.0478V36.6692H51.9377L45.7962 45.8403H44.4754V34.1597Z" fill="#143AA2"/>
<path d="M67.4598 37.8099H66.095C66.0143 37.403 65.8731 37.0456 65.6713 36.7376C65.4732 36.4297 65.2311 36.1711 64.9449 35.962C64.6624 35.749 64.3487 35.5894 64.0038 35.4829C63.659 35.3764 63.2994 35.3232 62.9252 35.3232C62.2428 35.3232 61.6246 35.5019 61.0706 35.8593C60.5203 36.2167 60.0819 36.7433 59.7554 37.4392C59.4325 38.135 59.2711 38.9886 59.2711 40C59.2711 41.0114 59.4325 41.865 59.7554 42.5608C60.0819 43.2567 60.5203 43.7833 61.0706 44.1407C61.6246 44.4981 62.2428 44.6768 62.9252 44.6768C63.2994 44.6768 63.659 44.6236 64.0038 44.5171C64.3487 44.4106 64.6624 44.2529 64.9449 44.0437C65.2311 43.8308 65.4732 43.5703 65.6713 43.2624C65.8731 42.9506 66.0143 42.5932 66.095 42.1901H67.4598C67.3571 42.7871 67.17 43.3213 66.8985 43.7928C66.627 44.2643 66.2895 44.6654 65.8859 44.9962C65.4824 45.3232 65.0293 45.5722 64.5266 45.7433C64.0277 45.9144 63.4939 46 62.9252 46C61.964 46 61.1092 45.7567 60.3607 45.27C59.6123 44.7833 59.0235 44.0913 58.5942 43.1939C58.165 42.2966 57.9503 41.2319 57.9503 40C57.9503 38.7681 58.165 37.7034 58.5942 36.8061C59.0235 35.9087 59.6123 35.2167 60.3607 34.73C61.1092 34.2433 61.964 34 62.9252 34C63.4939 34 64.0277 34.0856 64.5266 34.2567C65.0293 34.4278 65.4824 34.6787 65.8859 35.0095C66.2895 35.3365 66.627 35.7357 66.8985 36.2072C67.17 36.6749 67.3571 37.2091 67.4598 37.8099Z" fill="#143AA2"/>
<path d="M71.2959 35.4144V34.1597H79.7488V35.4144H76.2048V45.8403H74.84V35.4144H71.2959Z" fill="#143AA2"/>
<path d="M84.1022 34.1597H85.445V43.3536H85.5551L91.7186 34.1597H93.0394V45.8403H91.6746V36.6692H91.5645L85.423 45.8403H84.1022V34.1597Z" fill="#143AA2"/>
<path d="M104.643 45.8403L100.769 40.4791H99.3822V45.8403H98.0174V34.1597H99.3822V39.2243H99.9765L104.489 34.1597H106.118L101.561 39.2928L106.272 45.8403H104.643Z" fill="#143AA2"/>
<path d="M110.745 45.8403H109.314L113.453 34.1597H114.862L119 45.8403H117.569L114.201 36.0076H114.113L110.745 45.8403ZM111.274 41.2776H117.041V42.5323H111.274V41.2776Z" fill="#143AA2"/>
<path d="M8.9937 28.4922H6.40829L9.03755 9.642H2.63149L2.95859 7.29685H18.3274L18.0003 9.642H11.623L8.9937 28.4922Z" fill="#C2202E"/>
<path d="M26.8496 7.29685C29.5307 7.29685 31.4082 7.84109 32.4821 8.92955C33.5559 10.018 33.9549 11.5518 33.6788 13.5308C33.516 14.6984 33.1042 15.7968 32.4436 16.8259C31.8049 17.8352 30.8381 18.6565 29.5432 19.2897C28.2675 19.923 26.6051 20.2397 24.5559 20.2397H22.2003L21.0493 28.4922H18.4639L21.4202 7.29685H26.8496ZM26.3009 9.58263H23.6868L22.5192 17.9539H24.5875C26.5409 17.9539 28.0419 17.6274 29.0906 16.9743C30.1392 16.3212 30.7726 15.213 30.9907 13.6495C31.1811 12.284 30.902 11.2648 30.1532 10.5919C29.4044 9.91906 28.1203 9.58263 26.3009 9.58263Z" fill="#C2202E"/>
<path d="M42.4058 9.34514C41.4482 9.34514 40.5603 9.46389 39.7419 9.70137C38.9264 9.91906 38.1819 10.1763 37.5085 10.4732L36.7562 8.24679C37.5966 7.85098 38.5395 7.54423 39.5848 7.32654C40.6302 7.10885 41.6891 7 42.7616 7C44.964 7 46.7103 7.45518 48.0005 8.36553C49.3098 9.27588 50.207 10.5326 50.692 12.1356C51.1798 13.7188 51.2829 15.5197 51.0013 17.5383C50.6784 19.8538 50.0357 21.8526 49.0733 23.5348C48.1109 25.2169 46.8289 26.5132 45.2273 27.4235C43.6449 28.3339 41.7429 28.7891 39.5213 28.7891C38.334 28.7891 37.3382 28.7198 36.534 28.5813C35.7298 28.4427 34.9463 28.225 34.1833 27.9282L34.5063 25.6127C35.2803 25.8304 36.0666 26.0283 36.8653 26.2064C37.6667 26.3648 38.527 26.4439 39.4463 26.4439C41.9168 26.4439 43.8683 25.7711 45.3008 24.4253C46.7552 23.0598 47.6974 21.1104 48.1274 18.5773H38.1592L38.4863 16.2322H48.4257C48.5379 14.0552 48.0557 12.3632 46.9793 11.156C45.922 9.94875 44.3975 9.34514 42.4058 9.34514Z" fill="#C2202E"/>
<path d="M69.0022 28.4922H65.8998L58.1199 17.7461L56.621 28.4922H54.0356L56.992 7.29685H59.5774L58.1447 17.568L68.6263 7.29685H71.5564L61.2144 17.5977L69.0022 28.4922Z" fill="#C2202E"/>
<path d="M71.6422 22.2944C71.6422 20.5095 71.7614 18.7349 71.8754 16.9654C71.9894 15.196 72.1448 13.4265 72.3158 11.6674C72.4868 9.90823 72.694 8.1491 72.9065 6.39513C73.1189 4.64115 73.3624 2.88718 73.6163 1.13836C73.6602 0.825252 73.8168 0.538671 74.0569 0.331833C74.2971 0.124996 74.6045 0.0119671 74.922 0.0137567C76.0464 0.0137567 77.1292 -0.0171958 78.295 0.0137567L79.1603 0.0395441L80.0256 0.0962985C80.6059 0.122092 81.181 0.194308 81.751 0.26653C84.0455 0.540392 86.3037 1.05925 88.4867 1.81415C90.6516 2.57231 92.7276 3.56168 94.6784 4.76496C96.6171 5.94327 98.3996 7.35924 99.9841 8.97966C98.0562 7.88012 96.0648 6.89481 94.0204 6.02886C92.0091 5.19342 89.9398 4.50379 87.8287 3.96536C85.7385 3.43128 83.6093 3.06214 81.4608 2.86138C80.9427 2.81495 80.3935 2.76853 79.8546 2.74274L79.0515 2.69631H78.2432C77.1759 2.69631 76.0256 2.6963 74.922 2.67051L76.2432 1.54591C75.9427 3.2844 75.637 5.02806 75.3054 6.76656C74.9738 8.50505 74.6267 10.2332 74.2692 11.9666C73.9116 13.6999 73.4868 15.4229 73.0619 17.1253C72.637 18.8277 72.1707 20.6023 71.6422 22.2944Z" fill="#143AA2"/>
<path d="M78.3002 10.1662C80.6111 9.90824 82.9168 9.73284 85.2276 9.57292C86.3831 9.48006 87.5333 9.42847 88.6888 9.36141C89.8442 9.29435 90.9997 9.22729 92.1551 9.19118L93.8857 9.11895L94.7509 9.088H95.6991C96.3955 9.09771 97.0861 9.21607 97.7457 9.43879C98.447 9.68287 99.0906 10.0674 99.6369 10.5686C100.638 11.5545 101.329 12.8092 101.627 14.1797C101.917 15.3998 102.058 16.6504 102.046 17.9043L100.886 16.5785C103.026 16.8519 105.165 17.1563 107.305 17.4555L111.31 18.0487C111.435 18.0487 111.595 18.1003 111.761 18.1364C111.927 18.1726 112.088 18.2087 112.238 18.2551C112.849 18.4297 113.439 18.6737 113.994 18.9825C115.099 19.6007 116.043 20.4682 116.751 21.5154C117.1 22.033 117.386 22.5908 117.601 23.1765L117.751 23.6047L117.87 23.9916L118.108 24.7603L119.057 27.8555L119.968 30.9508V31.0178C120.002 31.1262 120.009 31.2411 119.988 31.3526C119.968 31.4642 119.92 31.5691 119.85 31.6583C119.78 31.7476 119.689 31.8186 119.585 31.8651C119.481 31.9117 119.367 31.9325 119.253 31.9258C117.647 31.8536 103.658 31.3686 102.051 31.1932C103.658 31.0178 117.647 30.5329 119.253 30.4607L118.559 31.4357L117.326 28.4539L116.16 25.3896L115.865 24.6416L115.715 24.265L115.575 23.9452C115.382 23.5371 115.148 23.1498 114.875 22.7896C114.323 22.0758 113.614 21.4971 112.803 21.0976C112.408 20.8978 111.99 20.7454 111.559 20.6436C111.45 20.6126 111.347 20.5972 111.248 20.5765C111.134 20.5534 111.018 20.5362 110.901 20.5249L106.896 20.0349C104.761 19.7563 102.632 19.4777 100.502 19.1734C100.183 19.1285 99.8902 18.9701 99.6788 18.7274C99.4674 18.4847 99.3513 18.174 99.3519 17.8527C99.369 16.8038 99.2752 15.7559 99.0722 14.7265C98.9161 13.827 98.5166 12.987 97.9167 12.2967C97.2854 11.6784 96.4487 11.3115 95.5644 11.265L95.1913 11.234H94.7613L92.1654 11.1257C91.01 11.0896 89.8546 11.0225 88.6991 10.9555C87.5437 10.8884 86.3935 10.8368 85.238 10.7491C82.9168 10.6047 80.6111 10.4293 78.3002 10.1662Z" fill="#143AA2"/>
<path d="M2 30.6722C4.38341 30.3214 67.3469 29.594 69.7303 29.5012C74.4919 29.3155 79.2536 29.2897 84.0152 29.3774L82.7147 30.6722C82.7327 29.7403 82.9494 28.8228 83.3504 27.9805C83.7515 27.1383 84.3278 26.3906 85.0411 25.7869C85.7403 25.1925 86.5604 24.756 87.4452 24.5075C87.8806 24.3886 88.3266 24.3125 88.7769 24.2805C89.0048 24.2805 89.2276 24.2805 89.4504 24.2805L90.0256 24.3166L90.6059 24.3631C90.8235 24.3889 91.0411 24.4043 91.2587 24.4404C91.6873 24.5207 92.1072 24.6416 92.5126 24.8015C93.3024 25.1242 94.0103 25.6176 94.5851 26.246C95.1424 26.8306 95.561 27.5321 95.8103 28.299C96.0595 29.0658 96.1331 29.8785 96.0255 30.6774C95.9131 29.9399 95.6599 29.2307 95.2794 28.5881C94.9102 27.9864 94.4282 27.4609 93.8597 27.0405C93.3102 26.6466 92.689 26.3627 92.0307 26.2047C91.7126 26.1311 91.3882 26.0879 91.0618 26.0758H90.5748L89.4452 26.1583C89.2898 26.1583 89.1344 26.1893 88.9789 26.215C88.6744 26.2753 88.3761 26.3634 88.0877 26.4781C87.5219 26.7059 87.0088 27.0465 86.58 27.4789C86.1602 27.8947 85.8301 28.3915 85.61 28.9389C85.39 29.4862 85.2845 30.0725 85.3002 30.6619C85.3057 30.8259 85.2787 30.9893 85.2208 31.1429C85.1628 31.2965 85.0751 31.4372 84.9625 31.5569C84.8499 31.6767 84.7146 31.7732 84.5646 31.8409C84.4145 31.9086 84.2524 31.9462 84.0878 31.9516H84.0359C79.2743 32.0393 74.5127 32.0135 69.751 31.8278C67.3469 31.7504 4.38341 31.023 2 30.6722Z" fill="#143AA2"/>
</g>
<path d="M160 10.4144V9.1597H169.085V10.4144H165.276V20.8403H163.809V10.4144H160Z" fill="#143AA2"/>
<path d="M171.515 20.8403V9.1597H175.608C176.558 9.1597 177.335 9.3251 177.938 9.65589C178.545 9.98289 178.995 10.4259 179.287 10.9848C179.578 11.5437 179.724 12.1673 179.724 12.8555C179.724 13.5437 179.578 14.1692 179.287 14.7319C178.999 15.2947 178.553 15.7433 177.95 16.0779C177.347 16.4087 176.574 16.5741 175.632 16.5741H172.698V15.3194H175.584C176.235 15.3194 176.757 15.211 177.152 14.9943C177.546 14.7776 177.832 14.4848 178.009 14.116C178.191 13.7433 178.281 13.3232 178.281 12.8555C178.281 12.3878 178.191 11.9696 178.009 11.6008C177.832 11.2319 177.544 10.943 177.146 10.7338C176.747 10.5209 176.219 10.4144 175.561 10.4144H172.982V20.8403H171.515Z" fill="#143AA2"/>
<path d="M181.514 20.8403H179.977L184.424 9.1597H185.939L190.386 20.8403H188.848L185.229 11.0076H185.134L181.514 20.8403ZM182.082 16.2776H188.281V17.5323H182.082V16.2776Z" fill="#143AA2"/>
<path d="M192.44 20.8403V9.1597H193.906V14.3612H200.365V9.1597H201.832V20.8403H200.365V15.616H193.906V20.8403H192.44Z" fill="#143AA2"/>
<path d="M214.682 12.8099H213.215C213.128 12.403 212.977 12.0456 212.76 11.7376C212.547 11.4297 212.287 11.1711 211.979 10.962C211.675 10.749 211.338 10.5894 210.968 10.4829C210.597 10.3764 210.211 10.3232 209.808 10.3232C209.075 10.3232 208.411 10.5019 207.815 10.8593C207.224 11.2167 206.753 11.7433 206.402 12.4392C206.055 13.135 205.881 13.9886 205.881 15C205.881 16.0114 206.055 16.865 206.402 17.5608C206.753 18.2567 207.224 18.7833 207.815 19.1407C208.411 19.4981 209.075 19.6768 209.808 19.6768C210.211 19.6768 210.597 19.6236 210.968 19.5171C211.338 19.4106 211.675 19.2529 211.979 19.0437C212.287 18.8308 212.547 18.5703 212.76 18.2624C212.977 17.9506 213.128 17.5932 213.215 17.1901H214.682C214.572 17.7871 214.371 18.3213 214.079 18.7928C213.787 19.2643 213.424 19.6654 212.99 19.9962C212.557 20.3232 212.07 20.5722 211.53 20.7433C210.993 20.9144 210.42 21 209.808 21C208.775 21 207.857 20.7567 207.052 20.27C206.248 19.7833 205.615 19.0913 205.154 18.1939C204.692 17.2966 204.462 16.2319 204.462 15C204.462 13.7681 204.692 12.7034 205.154 11.8061C205.615 10.9087 206.248 10.2167 207.052 9.73004C207.857 9.24335 208.775 9 209.808 9C210.42 9 210.993 9.08555 211.53 9.25665C212.07 9.42776 212.557 9.67871 212.99 10.0095C213.424 10.3365 213.787 10.7357 214.079 11.2072C214.371 11.6749 214.572 12.2091 214.682 12.8099Z" fill="#143AA2"/>
<path d="M226.28 9.1597V20.8403H224.813V10.4144H218.709V20.8403H217.242V9.1597H226.28Z" fill="#143AA2"/>
<path d="M239.625 15C239.625 16.2319 239.395 17.2966 238.933 18.1939C238.472 19.0913 237.839 19.7833 237.035 20.27C236.231 20.7567 235.312 21 234.279 21C233.246 21 232.327 20.7567 231.523 20.27C230.718 19.7833 230.085 19.0913 229.624 18.1939C229.163 17.2966 228.932 16.2319 228.932 15C228.932 13.7681 229.163 12.7034 229.624 11.8061C230.085 10.9087 230.718 10.2167 231.523 9.73004C232.327 9.24335 233.246 9 234.279 9C235.312 9 236.231 9.24335 237.035 9.73004C237.839 10.2167 238.472 10.9087 238.933 11.8061C239.395 12.7034 239.625 13.7681 239.625 15ZM238.206 15C238.206 13.9886 238.031 13.135 237.68 12.4392C237.333 11.7433 236.861 11.2167 236.266 10.8593C235.675 10.5019 235.012 10.3232 234.279 10.3232C233.545 10.3232 232.881 10.5019 232.286 10.8593C231.694 11.2167 231.223 11.7433 230.872 12.4392C230.525 13.135 230.351 13.9886 230.351 15C230.351 16.0114 230.525 16.865 230.872 17.5608C231.223 18.2567 231.694 18.7833 232.286 19.1407C232.881 19.4981 233.545 19.6768 234.279 19.6768C235.012 19.6768 235.675 19.4981 236.266 19.1407C236.861 18.7833 237.333 18.2567 237.68 17.5608C238.031 16.865 238.206 16.0114 238.206 15Z" fill="#143AA2"/>
<path d="M242.258 20.8403V9.1597H246.351C247.301 9.1597 248.078 9.3251 248.682 9.65589C249.289 9.98289 249.738 10.4259 250.03 10.9848C250.322 11.5437 250.468 12.1673 250.468 12.8555C250.468 13.5437 250.322 14.1692 250.03 14.7319C249.742 15.2947 249.297 15.7433 248.693 16.0779C248.09 16.4087 247.317 16.5741 246.375 16.5741H243.441V15.3194H246.328C246.978 15.3194 247.501 15.211 247.895 14.9943C248.289 14.7776 248.575 14.4848 248.753 14.116C248.934 13.7433 249.025 13.3232 249.025 12.8555C249.025 12.3878 248.934 11.9696 248.753 11.6008C248.575 11.2319 248.287 10.943 247.889 10.7338C247.491 10.5209 246.962 10.4144 246.304 10.4144H243.725V20.8403H242.258Z" fill="#143AA2"/>
<path d="M252.335 10.4144V9.1597H261.419V10.4144H257.61V20.8403H256.144V10.4144H252.335Z" fill="#143AA2"/>
<path d="M263.85 20.8403V9.1597H265.317V14.3612H271.775V9.1597H273.242V20.8403H271.775V15.616H265.317V20.8403H263.85Z" fill="#143AA2"/>
<path d="M276.842 20.8403H275.304L279.752 9.1597H281.266L285.714 20.8403H284.176L280.556 11.0076H280.462L276.842 20.8403ZM277.41 16.2776H283.608V17.5323H277.41V16.2776Z" fill="#143AA2"/>
<path d="M296 20.8403H294.533V10.4144H291.954C291.3 10.4144 290.774 10.5114 290.375 10.7053C289.977 10.8954 289.687 11.1654 289.506 11.5152C289.324 11.865 289.234 12.2738 289.234 12.7414C289.234 13.2091 289.322 13.6122 289.5 13.9506C289.681 14.2852 289.969 14.5437 290.363 14.7262C290.762 14.9087 291.284 15 291.931 15H295.196V16.2776H291.883C290.945 16.2776 290.174 16.1274 289.571 15.827C288.968 15.5228 288.52 15.1046 288.228 14.5722C287.937 14.0399 287.791 13.4297 287.791 12.7414C287.791 12.0532 287.937 11.4392 288.228 10.8992C288.52 10.3593 288.97 9.93536 289.577 9.62738C290.184 9.31559 290.961 9.1597 291.907 9.1597H296V20.8403ZM290.298 15.5932H291.954L289.021 20.8403H287.317L290.298 15.5932Z" fill="#143AA2"/>
<path d="M169.05 36.8403L164.928 31.4791H163.452V36.8403H162V25.1597H163.452V30.2243H164.085L168.886 25.1597H170.619L165.771 30.2928L170.783 36.8403H169.05Z" fill="#143AA2"/>
<path d="M188.052 31C188.052 32.2319 187.823 33.2966 187.367 34.1939C186.91 35.0913 186.283 35.7833 185.487 36.27C184.691 36.7567 183.781 37 182.758 37C181.736 37 180.826 36.7567 180.03 36.27C179.233 35.7833 178.607 35.0913 178.15 34.1939C177.693 33.2966 177.465 32.2319 177.465 31C177.465 29.7681 177.693 28.7034 178.15 27.8061C178.607 26.9087 179.233 26.2167 180.03 25.73C180.826 25.2433 181.736 25 182.758 25C183.781 25 184.691 25.2433 185.487 25.73C186.283 26.2167 186.91 26.9087 187.367 27.8061C187.823 28.7034 188.052 29.7681 188.052 31ZM186.646 31C186.646 29.9886 186.473 29.135 186.125 28.4392C185.782 27.7433 185.315 27.2167 184.726 26.8593C184.14 26.5019 183.484 26.3232 182.758 26.3232C182.032 26.3232 181.374 26.5019 180.785 26.8593C180.199 27.2167 179.733 27.7433 179.386 28.4392C179.042 29.135 178.87 29.9886 178.87 31C178.87 32.0114 179.042 32.865 179.386 33.5608C179.733 34.2567 180.199 34.7833 180.785 35.1407C181.374 35.4981 182.032 35.6768 182.758 35.6768C183.484 35.6768 184.14 35.4981 184.726 35.1407C185.315 34.7833 185.782 34.2567 186.125 33.5608C186.473 32.865 186.646 32.0114 186.646 31Z" fill="#143AA2"/>
<path d="M196.331 25.1597H198.064L202.139 34.8555H202.28L206.355 25.1597H208.088V36.8403H206.73V27.9658H206.613L202.865 36.8403H201.554L197.806 27.9658H197.689V36.8403H196.331V25.1597Z" fill="#143AA2"/>
<path d="M225.808 25.1597V36.8403H224.356V26.4144H218.313V36.8403H216.861V25.1597H225.808Z" fill="#143AA2"/>
<path d="M235.066 36.8403H233.543L237.947 25.1597H239.446L243.849 36.8403H242.327L238.743 27.0076H238.649L235.066 36.8403ZM235.628 32.2776H241.765V33.5323H235.628V32.2776Z" fill="#143AA2"/>
<path d="M251.554 36.8403V25.1597H253.006V30.3612H259.4V25.1597H260.853V36.8403H259.4V31.616H253.006V36.8403H251.554Z" fill="#143AA2"/>
<path d="M269.597 25.1597H271.026V34.3536H271.143L277.701 25.1597H279.106V36.8403H277.654V27.6692H277.537L271.002 36.8403H269.597V25.1597Z" fill="#143AA2"/>
<path d="M296 36.8403H294.548V26.4144H291.995C291.347 26.4144 290.826 26.5114 290.431 26.7053C290.037 26.8954 289.75 27.1654 289.571 27.5152C289.391 27.865 289.301 28.2738 289.301 28.7414C289.301 29.2091 289.389 29.6122 289.565 29.9506C289.744 30.2852 290.029 30.5437 290.42 30.7262C290.814 30.9087 291.331 31 291.971 31H295.204V32.2776H291.925C290.996 32.2776 290.232 32.1274 289.635 31.827C289.038 31.5228 288.595 31.1046 288.306 30.5722C288.017 30.0399 287.873 29.4297 287.873 28.7414C287.873 28.0532 288.017 27.4392 288.306 26.8992C288.595 26.3593 289.04 25.9354 289.641 25.6274C290.242 25.3156 291.011 25.1597 291.948 25.1597H296V36.8403ZM290.355 31.5932H291.995L289.091 36.8403H287.404L290.355 31.5932Z" fill="#143AA2"/>
<defs>
<clipPath id="clip0_140_3737">
<rect width="120" height="46" fill="white"/>
</clipPath>
</defs>
</svg>
