<svg width="16" height="15" viewBox="0 0 16 15" fill="none" xmlns="http://www.w3.org/2000/svg">
<path d="M15 14.5L11 10.5M7 12.5C6.21207 12.5 5.43185 12.3448 4.7039 12.0433C3.97595 11.7417 3.31451 11.2998 2.75736 10.7426C2.20021 10.1855 1.75825 9.52405 1.45672 8.7961C1.15519 8.06815 1 7.28793 1 6.5C1 5.71207 1.15519 4.93185 1.45672 4.2039C1.75825 3.47595 2.20021 2.81451 2.75736 2.25736C3.31451 1.70021 3.97595 1.25825 4.7039 0.956723C5.43185 0.655195 6.21207 0.5 7 0.5C8.5913 0.5 10.1174 1.13214 11.2426 2.25736C12.3679 3.38258 13 4.9087 13 6.5C13 8.0913 12.3679 9.61742 11.2426 10.7426C10.1174 11.8679 8.5913 12.5 7 12.5Z" stroke="white"/>
</svg>
